<svg width="620" height="96" viewBox="0 0 620 96" fill="none" xmlns="http://www.w3.org/2000/svg">
<g clip-path="url(#clip0_6090_3633)">
<path d="M155.647 40.2363C158.045 35.9002 161.388 32.5088 165.675 30.0864C169.963 27.664 174.832 26.4528 180.258 26.4528C186.92 26.4528 192.613 28.2212 197.361 31.7337C202.108 35.2462 205.258 40.0425 206.856 46.1228H191.837C190.723 43.773 189.124 42.0047 187.09 40.7692C185.03 39.5338 182.705 38.9282 180.089 38.9282C175.874 38.9282 172.482 40.3817 169.866 43.3128C167.25 46.2439 165.942 50.1682 165.942 55.0614C165.942 59.9547 167.25 63.879 169.866 66.8101C172.482 69.7412 175.874 71.1947 180.089 71.1947C182.705 71.1947 185.03 70.5891 187.09 69.3536C189.149 68.1182 190.723 66.3499 191.837 64.0001H206.856C205.258 70.0804 202.084 74.8525 197.361 78.3408C192.613 81.829 186.92 83.5732 180.258 83.5732C174.832 83.5732 169.963 82.362 165.675 79.9396C161.388 77.5172 158.045 74.15 155.647 69.8381C153.249 65.5262 152.062 60.6088 152.062 55.0614C152.062 49.5141 153.249 44.5724 155.647 40.2363Z" fill="#171717"/>
<path d="M222.166 81.0299C218.677 79.1647 215.94 76.5 213.93 73.036C211.943 69.572 210.926 65.5265 210.926 60.8997C210.926 56.2729 211.943 52.276 213.954 48.7877C215.989 45.2994 218.75 42.6348 222.263 40.7695C225.775 38.9043 229.724 37.9838 234.084 37.9838C238.444 37.9838 242.393 38.9043 245.905 40.7695C249.418 42.6348 252.179 45.2994 254.214 48.7877C256.249 52.276 257.242 56.3214 257.242 60.8997C257.242 65.4781 256.225 69.5235 254.166 73.0118C252.107 76.5 249.321 79.1647 245.784 81.0299C242.248 82.8952 238.299 83.8157 233.914 83.8157C229.53 83.8157 225.63 82.8952 222.142 81.0299H222.166ZM240.624 69.1359C242.466 67.2222 243.386 64.4849 243.386 60.8997C243.386 57.3146 242.49 54.6015 240.721 52.6636C238.929 50.7499 236.749 49.7809 234.132 49.7809C231.516 49.7809 229.263 50.7256 227.495 52.6151C225.727 54.5046 224.855 57.2661 224.855 60.8755C224.855 64.4849 225.727 67.198 227.447 69.1117C229.167 71.0254 231.347 71.9944 233.963 71.9944C236.579 71.9944 238.808 71.0254 240.624 69.1117V69.1359Z" fill="#171717"/>
<path d="M262.814 48.7391C264.534 45.275 266.908 42.6104 269.887 40.7451C272.867 38.8799 276.185 37.9594 279.867 37.9594C282.799 37.9594 285.463 38.565 287.886 39.8004C290.308 41.0358 292.222 42.6831 293.602 44.7421V24.0547H307.265V83.1615H293.602V76.7663C292.319 78.898 290.502 80.5937 288.128 81.8776C285.754 83.1615 282.992 83.7913 279.867 83.7913C276.185 83.7913 272.867 82.8466 269.887 80.9571C266.908 79.0676 264.558 76.3787 262.814 72.8905C261.094 69.4022 260.222 65.381 260.222 60.7784C260.222 56.1759 261.094 52.1789 262.814 48.7149V48.7391ZM290.768 52.8087C288.879 50.8466 286.577 49.8534 283.864 49.8534C281.151 49.8534 278.85 50.8223 276.961 52.7603C275.071 54.6982 274.126 57.3871 274.126 60.7784C274.126 64.1698 275.071 66.8829 276.961 68.8935C278.85 70.8799 281.151 71.8973 283.864 71.8973C286.577 71.8973 288.879 70.9041 290.768 68.942C292.658 66.9798 293.602 64.2909 293.602 60.8753C293.602 57.4597 292.658 54.7709 290.768 52.8087Z" fill="#171717"/>
<path d="M357.36 64.17H326.45C326.668 66.9315 327.564 69.0633 329.115 70.5167C330.689 71.9701 332.627 72.7211 334.904 72.7211C338.32 72.7211 340.694 71.2919 342.026 68.4092H356.56C355.809 71.3403 354.477 73.9807 352.515 76.3062C350.577 78.656 348.13 80.497 345.199 81.8293C342.268 83.1617 338.998 83.8157 335.364 83.8157C331.004 83.8157 327.104 82.8952 323.713 81.0299C320.297 79.1647 317.632 76.5 315.719 73.036C313.805 69.572 312.836 65.5265 312.836 60.8997C312.836 56.2729 313.781 52.2275 315.67 48.7635C317.56 45.2994 320.2 42.6348 323.616 40.7695C327.031 38.9043 330.931 37.9838 335.364 37.9838C339.797 37.9838 343.504 38.8801 346.871 40.6969C350.214 42.5137 352.854 45.0814 354.744 48.4486C356.633 51.7915 357.578 55.7158 357.578 60.1972C357.578 61.4811 357.505 62.8134 357.336 64.1942L357.36 64.17ZM343.625 56.5879C343.625 54.2381 342.825 52.3729 341.227 50.9921C339.628 49.6113 337.641 48.9088 335.243 48.9088C332.845 48.9088 331.028 49.5629 329.454 50.8952C327.879 52.2275 326.91 54.117 326.547 56.5636H343.649L343.625 56.5879Z" fill="#171717"/>
<path d="M392.582 83.1856L380.931 62.0138H377.66V83.1856H363.998V27.1069H386.914C391.347 27.1069 395.102 27.882 398.227 29.4324C401.352 30.9827 403.677 33.0902 405.227 35.7791C406.778 38.468 407.553 41.4717 407.553 44.7662C407.553 48.4967 406.511 51.8154 404.404 54.7465C402.296 57.6777 399.196 59.7609 395.102 60.9721L408.037 83.1856H392.607H392.582ZM377.636 52.3484H386.115C388.61 52.3484 390.499 51.7428 391.735 50.5073C392.994 49.2719 393.624 47.552 393.624 45.3234C393.624 43.0948 392.994 41.5202 391.735 40.2848C390.475 39.0493 388.61 38.4437 386.115 38.4437H377.636V52.3484Z" fill="#171717"/>
<path d="M414.36 48.739C416.08 45.275 418.454 42.6103 421.433 40.7451C424.413 38.8798 427.756 38.2258 431.414 38.2258H458.811V83.1614H445.149V76.8632C443.817 78.9464 441.975 80.6179 439.602 81.9018C437.228 83.1856 434.466 83.8155 431.341 83.8155C427.708 83.8155 424.413 82.8707 421.433 80.9813C418.454 79.0918 416.104 76.4029 414.36 72.9146C412.64 69.4264 411.768 65.4052 411.768 60.8026C411.768 56.2 412.64 52.2031 414.36 48.739ZM442.315 52.8087C440.425 50.8465 438.124 49.8533 435.411 49.8533C432.698 49.8533 430.396 50.8223 428.507 52.7602C426.617 54.6981 425.673 57.387 425.673 60.7784C425.673 64.1697 426.617 66.8828 428.507 68.8934C430.396 70.8798 432.698 71.8972 435.411 71.8972C438.124 71.8972 440.425 70.904 442.315 68.9419C444.204 66.9797 445.149 64.2909 445.149 60.8753C445.149 57.4597 444.204 54.7708 442.315 52.8087Z" fill="#171717"/>
<path d="M486.306 39.8731C488.704 38.5892 491.441 37.9594 494.542 37.9594C498.224 37.9594 501.543 38.8799 504.522 40.7451C507.502 42.6104 509.851 45.275 511.596 48.7391C513.315 52.2031 514.187 56.2243 514.187 60.8027C514.187 65.381 513.315 69.4264 511.596 72.9147C509.876 76.403 507.502 79.0918 504.522 80.9813C501.543 82.8708 498.224 83.8155 494.542 83.8155C491.393 83.8155 488.655 83.1857 486.306 81.9503C483.956 80.6906 482.115 79.0434 480.782 76.9601V83.1857H467.12V24.0547H480.782V44.9117C482.066 42.8284 483.907 41.1569 486.306 39.8731ZM497.449 52.7845C495.559 50.8466 493.234 49.8776 490.448 49.8776C487.662 49.8776 485.434 50.8708 483.544 52.8329C481.655 54.7951 480.71 57.484 480.71 60.8996C480.71 64.3151 481.655 67.004 483.544 68.9662C485.434 70.9283 487.735 71.9215 490.448 71.9215C493.161 71.9215 495.487 70.9283 497.4 68.9177C499.314 66.9314 500.283 64.2183 500.283 60.8027C500.283 57.3871 499.338 54.7224 497.449 52.7845Z" fill="#171717"/>
<path d="M538.944 39.8737C541.342 38.5898 544.08 37.96 547.18 37.96C550.862 37.96 554.181 38.8805 557.161 40.7457C560.14 42.611 562.49 45.2756 564.234 48.7397C565.954 52.2037 566.826 56.2249 566.826 60.8033C566.826 65.3816 565.954 69.427 564.234 72.9153C562.514 76.4036 560.14 79.0924 557.161 80.9819C554.181 82.8714 550.862 83.8161 547.18 83.8161C544.031 83.8161 541.294 83.1863 538.944 81.9509C536.595 80.6912 534.753 79.044 533.421 76.9607V83.1863H519.759V24.0554H533.421V44.9123C534.705 42.829 536.546 41.1575 538.944 39.8737ZM550.087 52.7851C548.198 50.8472 545.872 49.8782 543.087 49.8782C540.301 49.8782 538.072 50.8714 536.183 52.8336C534.293 54.7957 533.348 57.4846 533.348 60.9002C533.348 64.3158 534.293 67.0046 536.183 68.9668C538.072 70.9289 540.373 71.9221 543.087 71.9221C545.8 71.9221 548.125 70.9289 550.039 68.9183C551.953 66.932 552.922 64.2189 552.922 60.8033C552.922 57.3877 551.977 54.723 550.087 52.7851Z" fill="#171717"/>
<path d="M573.415 31.8548C571.889 30.4498 571.138 28.7057 571.138 26.6224C571.138 24.5391 571.889 22.7223 573.415 21.3173C574.941 19.9123 576.879 19.2098 579.277 19.2098C581.676 19.2098 583.541 19.9123 585.067 21.3173C586.593 22.7223 587.344 24.4907 587.344 26.6224C587.344 28.7541 586.593 30.4498 585.067 31.8548C583.541 33.2598 581.627 33.9623 579.277 33.9623C576.928 33.9623 574.917 33.2598 573.415 31.8548ZM586.084 38.6133V83.1856H572.422V38.5891H586.084V38.6133Z" fill="#171717"/>
<path d="M619.223 71.5824V83.1615H612.271C607.329 83.1615 603.453 81.9503 600.692 79.5279C597.93 77.1055 596.549 73.1569 596.549 67.6581V49.9261H591.123V38.5892H596.549V27.7368H610.212V38.5892H619.15V49.9261H610.212V67.8277C610.212 69.16 610.527 70.1289 611.181 70.7103C611.81 71.2917 612.876 71.5824 614.378 71.5824H619.247H619.223Z" fill="#171717"/>
<path d="M71.9532 96C66.6723 94.2559 61.5611 82.3376 55.2144 82.3376C64.1046 87.6912 60.3256 94.7888 59.5989 96H71.9774H71.9532Z" fill="#FF570A"/>
<path d="M110.421 52.8083C109.307 24.4662 86.3907 1.35639 58.0728 0.0482901C26.5088 -1.38093 0.492188 23.7637 0.492188 54.9885C0.492188 66.9067 4.27114 77.9287 10.7147 86.9158C14.421 92.0998 20.2106 95.37 26.4846 95.9029C17.2552 85.4381 25.1038 76.6933 25.1038 76.6933C21.446 78.4616 19.9441 84.4207 19.9441 84.4207C13.016 80.1573 14.6148 75.0702 14.6148 75.0702C15.0509 74.0044 16.044 71.0733 21.3733 72.1391C31.6928 38.1528 65.6792 55.8605 65.6792 55.8605C65.1462 54.7947 63.3779 48.7387 63.3779 48.7387C41.3097 45.5411 33.8487 29.8923 33.8487 29.8923C54.3181 23.6668 66.7692 40.5752 66.7692 40.5752C61.0766 26.6948 47.39 32.2179 43.829 9.44723C67.5929 13.3958 71.0327 32.0241 71.5172 36.0453C71.8563 35.2701 73.7458 34.2285 81.5459 34.6887C93.6337 35.3912 103.251 47.6728 103.251 47.6728C103.251 72.5752 72.8253 66.5676 72.8253 85.3897C72.8253 89.7985 77.6216 89.532 79.2204 91.6637C80.5285 93.4079 79.9714 95.3458 79.7049 95.9756H82.5876C89.4187 95.9756 95.9108 92.8265 99.932 87.3034C106.933 77.6864 110.905 65.7197 110.421 52.7841V52.8083Z" fill="#FF570A"/>
</g>
<defs>
<clipPath id="clip0_6090_3633">
<rect width="618.731" height="96" fill="white" transform="translate(0.491699)"/>
</clipPath>
</defs>
</svg>
