<svg width="620" height="97" viewBox="0 0 620 97" fill="none" xmlns="http://www.w3.org/2000/svg">
<g clip-path="url(#clip0_6090_3649)">
<path d="M155.647 40.796C158.045 36.4599 161.388 33.0685 165.675 30.6461C169.963 28.2237 174.832 27.0125 180.258 27.0125C186.92 27.0125 192.613 28.7808 197.361 32.2933C202.108 35.8058 205.258 40.6022 206.856 46.6824H191.837C190.723 44.3327 189.124 42.5643 187.09 41.3289C185.03 40.0935 182.705 39.4879 180.089 39.4879C175.874 39.4879 172.482 40.9413 169.866 43.8724C167.25 46.8035 165.942 50.7278 165.942 55.6211C165.942 60.5144 167.25 64.4387 169.866 67.3698C172.482 70.3009 175.874 71.7543 180.089 71.7543C182.705 71.7543 185.03 71.1487 187.09 69.9133C189.149 68.6779 190.723 66.9095 191.837 64.5598H206.856C205.258 70.64 202.084 75.4122 197.361 78.9004C192.613 82.3887 186.92 84.1328 180.258 84.1328C174.832 84.1328 169.963 82.9216 165.675 80.4992C161.388 78.0768 158.045 74.7097 155.647 70.3978C153.249 66.0859 152.062 61.1684 152.062 55.6211C152.062 50.0738 153.249 45.1321 155.647 40.796Z" fill="white"/>
<path d="M222.166 81.5896C218.677 79.7244 215.94 77.0597 213.93 73.5957C211.943 70.1316 210.926 66.0862 210.926 61.4594C210.926 56.8326 211.943 52.8357 213.954 49.3474C215.989 45.8591 218.75 43.1945 222.263 41.3292C225.775 39.464 229.724 38.5435 234.084 38.5435C238.444 38.5435 242.393 39.464 245.905 41.3292C249.418 43.1945 252.179 45.8591 254.214 49.3474C256.249 52.8357 257.242 56.8811 257.242 61.4594C257.242 66.0378 256.225 70.0832 254.166 73.5715C252.107 77.0597 249.321 79.7244 245.784 81.5896C242.248 83.4549 238.299 84.3754 233.914 84.3754C229.53 84.3754 225.63 83.4549 222.142 81.5896H222.166ZM240.624 69.6956C242.466 67.7819 243.386 65.0446 243.386 61.4594C243.386 57.8743 242.49 55.1612 240.721 53.2232C238.929 51.3095 236.749 50.3406 234.132 50.3406C231.516 50.3406 229.263 51.2853 227.495 53.1748C225.727 55.0643 224.855 57.8258 224.855 61.4352C224.855 65.0446 225.727 67.7577 227.447 69.6714C229.167 71.5851 231.347 72.5541 233.963 72.5541C236.579 72.5541 238.808 71.5851 240.624 69.6714V69.6956Z" fill="white"/>
<path d="M262.814 49.2988C264.534 45.8347 266.908 43.1701 269.887 41.3048C272.867 39.4396 276.185 38.5191 279.867 38.5191C282.799 38.5191 285.463 39.1247 287.886 40.3601C290.308 41.5955 292.222 43.2427 293.602 45.3018V24.6144H307.265V83.7212H293.602V77.326C292.319 79.4577 290.502 81.1534 288.128 82.4373C285.754 83.7212 282.992 84.351 279.867 84.351C276.185 84.351 272.867 83.4063 269.887 81.5168C266.908 79.6273 264.558 76.9384 262.814 73.4502C261.094 69.9619 260.222 65.9407 260.222 61.3381C260.222 56.7356 261.094 52.7386 262.814 49.2745V49.2988ZM290.768 53.3684C288.879 51.4063 286.577 50.4131 283.864 50.4131C281.151 50.4131 278.85 51.382 276.961 53.32C275.071 55.2579 274.126 57.9468 274.126 61.3381C274.126 64.7295 275.071 67.4426 276.961 69.4532C278.85 71.4396 281.151 72.457 283.864 72.457C286.577 72.457 288.879 71.4638 290.768 69.5016C292.658 67.5395 293.602 64.8506 293.602 61.435C293.602 58.0194 292.658 55.3306 290.768 53.3684Z" fill="white"/>
<path d="M357.36 64.7297H326.45C326.668 67.4912 327.564 69.6229 329.115 71.0764C330.689 72.5298 332.627 73.2808 334.904 73.2808C338.32 73.2808 340.694 71.8516 342.026 68.9689H356.56C355.809 71.9 354.477 74.5404 352.515 76.8659C350.577 79.2157 348.13 81.0567 345.199 82.389C342.268 83.7214 338.998 84.3754 335.364 84.3754C331.004 84.3754 327.104 83.4549 323.713 81.5896C320.297 79.7244 317.632 77.0597 315.719 73.5957C313.805 70.1316 312.836 66.0862 312.836 61.4594C312.836 56.8326 313.781 52.7872 315.67 49.3232C317.56 45.8591 320.2 43.1945 323.616 41.3292C327.031 39.464 330.931 38.5435 335.364 38.5435C339.797 38.5435 343.504 39.4397 346.871 41.2566C350.214 43.0734 352.854 45.6411 354.744 49.0083C356.633 52.3512 357.578 56.2755 357.578 60.7569C357.578 62.0408 357.505 63.3731 357.336 64.7539L357.36 64.7297ZM343.625 57.1475C343.625 54.7978 342.825 52.9326 341.227 51.5518C339.628 50.171 337.641 49.4685 335.243 49.4685C332.845 49.4685 331.028 50.1226 329.454 51.4549C327.879 52.7872 326.91 54.6767 326.547 57.1233H343.649L343.625 57.1475Z" fill="white"/>
<path d="M392.582 83.7453L380.931 62.5735H377.66V83.7453H363.998V27.6666H386.914C391.347 27.6666 395.102 28.4417 398.227 29.9921C401.352 31.5424 403.677 33.6499 405.227 36.3388C406.778 39.0277 407.553 42.0314 407.553 45.3259C407.553 49.0564 406.511 52.3751 404.404 55.3062C402.296 58.2373 399.196 60.3206 395.102 61.5318L408.037 83.7453H392.607H392.582ZM377.636 52.908H386.115C388.61 52.908 390.499 52.3024 391.735 51.067C392.994 49.8316 393.624 48.1117 393.624 45.8831C393.624 43.6545 392.994 42.0799 391.735 40.8445C390.475 39.609 388.61 39.0034 386.115 39.0034H377.636V52.908Z" fill="white"/>
<path d="M414.36 49.2987C416.08 45.8346 418.454 43.17 421.433 41.3047C424.413 39.4395 427.756 38.7854 431.414 38.7854H458.811V83.7211H445.149V77.4228C443.817 79.5061 441.975 81.1776 439.602 82.4614C437.228 83.7453 434.466 84.3751 431.341 84.3751C427.708 84.3751 424.413 83.4304 421.433 81.5409C418.454 79.6514 416.104 76.9626 414.36 73.4743C412.64 69.986 411.768 65.9648 411.768 61.3623C411.768 56.7597 412.64 52.7627 414.36 49.2987ZM442.315 53.3683C440.425 51.4062 438.124 50.413 435.411 50.413C432.698 50.413 430.396 51.3819 428.507 53.3199C426.617 55.2578 425.673 57.9467 425.673 61.338C425.673 64.7294 426.617 67.4425 428.507 69.4531C430.396 71.4395 432.698 72.4569 435.411 72.4569C438.124 72.4569 440.425 71.4637 442.315 69.5015C444.204 67.5394 445.149 64.8505 445.149 61.4349C445.149 58.0193 444.204 55.3305 442.315 53.3683Z" fill="white"/>
<path d="M486.306 40.4328C488.704 39.1489 491.441 38.5191 494.542 38.5191C498.224 38.5191 501.543 39.4396 504.522 41.3048C507.502 43.1701 509.851 45.8347 511.596 49.2988C513.315 52.7628 514.187 56.784 514.187 61.3624C514.187 65.9407 513.315 69.9861 511.596 73.4744C509.876 76.9627 507.502 79.6515 504.522 81.541C501.543 83.4305 498.224 84.3752 494.542 84.3752C491.393 84.3752 488.655 83.7454 486.306 82.51C483.956 81.2503 482.115 79.6031 480.782 77.5198V83.7454H467.12V24.6144H480.782V45.4714C482.066 43.3881 483.907 41.7166 486.306 40.4328ZM497.449 53.3442C495.559 51.4063 493.234 50.4373 490.448 50.4373C487.662 50.4373 485.434 51.4305 483.544 53.3926C481.655 55.3548 480.71 58.0437 480.71 61.4592C480.71 64.8748 481.655 67.5637 483.544 69.5259C485.434 71.488 487.735 72.4812 490.448 72.4812C493.161 72.4812 495.487 71.488 497.4 69.4774C499.314 67.491 500.283 64.7779 500.283 61.3624C500.283 57.9468 499.338 55.2821 497.449 53.3442Z" fill="white"/>
<path d="M538.944 40.4333C541.342 39.1494 544.08 38.5196 547.18 38.5196C550.862 38.5196 554.181 39.4401 557.161 41.3053C560.14 43.1706 562.49 45.8352 564.234 49.2993C565.954 52.7633 566.826 56.7845 566.826 61.3629C566.826 65.9412 565.954 69.9866 564.234 73.4749C562.514 76.9632 560.14 79.652 557.161 81.5415C554.181 83.431 550.862 84.3757 547.18 84.3757C544.031 84.3757 541.294 83.7459 538.944 82.5105C536.595 81.2508 534.753 79.6036 533.421 77.5203V83.7459H519.759V24.615H533.421V45.4719C534.705 43.3886 536.546 41.7171 538.944 40.4333ZM550.087 53.3447C548.198 51.4068 545.872 50.4378 543.087 50.4378C540.301 50.4378 538.072 51.431 536.183 53.3932C534.293 55.3553 533.348 58.0442 533.348 61.4598C533.348 64.8754 534.293 67.5642 536.183 69.5264C538.072 71.4885 540.373 72.4817 543.087 72.4817C545.8 72.4817 548.125 71.4885 550.039 69.4779C551.953 67.4916 552.922 64.7785 552.922 61.3629C552.922 57.9473 551.977 55.2826 550.087 53.3447Z" fill="white"/>
<path d="M573.415 32.4145C571.889 31.0095 571.138 29.2654 571.138 27.1821C571.138 25.0988 571.889 23.282 573.415 21.877C574.941 20.472 576.879 19.7695 579.277 19.7695C581.676 19.7695 583.541 20.472 585.067 21.877C586.593 23.282 587.344 25.0504 587.344 27.1821C587.344 29.3138 586.593 31.0095 585.067 32.4145C583.541 33.8195 581.627 34.522 579.277 34.522C576.928 34.522 574.917 33.8195 573.415 32.4145ZM586.084 39.173V83.7453H572.422V39.1488H586.084V39.173Z" fill="white"/>
<path d="M619.223 72.142V83.7212H612.271C607.329 83.7212 603.453 82.51 600.692 80.0875C597.93 77.6651 596.549 73.7166 596.549 68.2177V50.4857H591.123V39.1489H596.549V28.2965H610.212V39.1489H619.15V50.4857H610.212V68.3873C610.212 69.7196 610.527 70.6886 611.181 71.27C611.81 71.8514 612.876 72.142 614.378 72.142H619.247H619.223Z" fill="white"/>
<path d="M71.9532 96.5597C66.6723 94.8156 61.5611 82.8973 55.2144 82.8973C64.1046 88.2509 60.3256 95.3485 59.5989 96.5597H71.9774H71.9532Z" fill="white"/>
<path d="M110.421 53.368C109.307 25.0258 86.3907 1.91605 58.0728 0.607952C26.5088 -0.821268 0.492188 24.3233 0.492188 55.5481C0.492188 67.4664 4.27114 78.4883 10.7147 87.4755C14.421 92.6594 20.2106 95.9297 26.4846 96.4626C17.2552 85.9978 25.1038 77.2529 25.1038 77.2529C21.446 79.0213 19.9441 84.9804 19.9441 84.9804C13.016 80.717 14.6148 75.6299 14.6148 75.6299C15.0509 74.564 16.044 71.6329 21.3733 72.6988C31.6928 38.7124 65.6792 56.4202 65.6792 56.4202C65.1462 55.3544 63.3779 49.2983 63.3779 49.2983C41.3097 46.1008 33.8487 30.452 33.8487 30.452C54.3181 24.2264 66.7692 41.1348 66.7692 41.1348C61.0766 27.2544 47.39 32.7775 43.829 10.0069C67.5929 13.9554 71.0327 32.5837 71.5172 36.6049C71.8563 35.8298 73.7458 34.7881 81.5459 35.2484C93.6337 35.9509 103.251 48.2325 103.251 48.2325C103.251 73.1348 72.8253 67.1273 72.8253 85.9494C72.8253 90.3581 77.6216 90.0917 79.2204 92.2234C80.5285 93.9675 79.9714 95.9054 79.7049 96.5353H82.5876C89.4187 96.5353 95.9108 93.3862 99.932 87.8631C106.933 78.2461 110.905 66.2794 110.421 53.3438V53.368Z" fill="white"/>
</g>
<defs>
<clipPath id="clip0_6090_3649">
<rect width="618.731" height="96" fill="white" transform="translate(0.491699 0.559692)"/>
</clipPath>
</defs>
</svg>
