<svg xmlns="http://www.w3.org/2000/svg" xmlns:xlink="http://www.w3.org/1999/xlink" viewBox="0 0 6962.3646 3000">
  <defs>
    <style>
      .cls-1 {
        fill: none;
      }

      .cls-2 {
        fill: #fff;
      }

      .cls-3 {
        fill: url(#linear-gradient);
      }

      .cls-4 {
        fill: url(#linear-gradient-2);
      }

      .cls-5 {
        fill: url(#linear-gradient-3);
      }

      .cls-6 {
        fill: url(#linear-gradient-4);
      }

      .cls-7 {
        fill: url(#linear-gradient-5);
      }

      .cls-8 {
        fill: url(#linear-gradient-6);
      }

      .cls-9 {
        fill: #0082fb;
      }

      .cls-10 {
        fill: url(#linear-gradient-7);
      }

      .cls-11 {
        fill: url(#linear-gradient-8);
      }

      .cls-12 {
        fill: url(#linear-gradient-9);
      }

      .cls-13 {
        fill: url(#linear-gradient-10);
      }

      .cls-14 {
        fill: url(#linear-gradient-11);
      }

      .cls-15 {
        fill: url(#linear-gradient-12);
      }

      .cls-16 {
        fill: url(#linear-gradient-13);
      }
    </style>
    <linearGradient id="linear-gradient" x1="1848.5768" y1="1511.6554" x2="1511.4817" y2="1069.9437" gradientUnits="userSpaceOnUse">
      <stop offset="0.0006" stop-color="#0867df"/>
      <stop offset="0.4539" stop-color="#0668e1"/>
      <stop offset="0.8591" stop-color="#0064e0"/>
    </linearGradient>
    <linearGradient id="linear-gradient-2" x1="1192.3201" y1="1225.5183" x2="1423.4195" y2="1050.0693" gradientUnits="userSpaceOnUse">
      <stop offset="0.1323" stop-color="#0064df"/>
      <stop offset="0.9988" stop-color="#0064e0"/>
    </linearGradient>
    <linearGradient id="linear-gradient-3" x1="1094.3665" y1="1482.9831" x2="1187.069" y2="1249.6225" gradientUnits="userSpaceOnUse">
      <stop offset="0.0147" stop-color="#0072ec"/>
      <stop offset="0.6881" stop-color="#0064df"/>
    </linearGradient>
    <linearGradient id="linear-gradient-4" x1="1081.7773" y1="1651.5654" x2="1092.5036" y2="1509.0459" gradientUnits="userSpaceOnUse">
      <stop offset="0.0731" stop-color="#007cf6"/>
      <stop offset="0.9943" stop-color="#0072ec"/>
    </linearGradient>
    <linearGradient id="linear-gradient-5" x1="1087.6762" y1="1728.9801" x2="1080.0035" y2="1671.8797" gradientUnits="userSpaceOnUse">
      <stop offset="0.0731" stop-color="#007ff9"/>
      <stop offset="1" stop-color="#007cf6"/>
    </linearGradient>
    <linearGradient id="linear-gradient-6" x1="1083.1722" y1="1743.9792" x2="1130.9886" y2="1845.3975" gradientUnits="userSpaceOnUse">
      <stop offset="0.0731" stop-color="#007ff9"/>
      <stop offset="1" stop-color="#0082fb"/>
    </linearGradient>
    <linearGradient id="linear-gradient-7" x1="1818.1038" y1="1253.2598" x2="1881.3187" y2="1165.8302" gradientUnits="userSpaceOnUse">
      <stop offset="0.2799" stop-color="#007ff8"/>
      <stop offset="0.9141" stop-color="#0082fb"/>
    </linearGradient>
    <linearGradient id="linear-gradient-8" x1="2298.7312" y1="1139.9469" x2="2430.9772" y2="1626.4232" gradientUnits="userSpaceOnUse">
      <stop offset="0" stop-color="#0082fb"/>
      <stop offset="0.9995" stop-color="#0081fa"/>
    </linearGradient>
    <linearGradient id="linear-gradient-9" x1="2462.9052" y1="1645.0338" x2="2379.2118" y2="1814.1626" gradientUnits="userSpaceOnUse">
      <stop offset="0.0619" stop-color="#0081fa"/>
      <stop offset="1" stop-color="#0080f9"/>
    </linearGradient>
    <linearGradient id="linear-gradient-10" x1="2312.6935" y1="1903.8289" x2="2390.9283" y2="1850.5433" gradientUnits="userSpaceOnUse">
      <stop offset="0" stop-color="#027af3"/>
      <stop offset="1" stop-color="#0080f9"/>
    </linearGradient>
    <linearGradient id="linear-gradient-11" x1="2189.9935" y1="1914.2404" x2="2298.7089" y2="1914.2404" gradientUnits="userSpaceOnUse">
      <stop offset="0" stop-color="#0377ef"/>
      <stop offset="0.9994" stop-color="#0279f1"/>
    </linearGradient>
    <linearGradient id="linear-gradient-12" x1="2095.4768" y1="1854.3673" x2="2173.6351" y2="1900.3498" gradientUnits="userSpaceOnUse">
      <stop offset="0.0019" stop-color="#0471e9"/>
      <stop offset="1" stop-color="#0377ef"/>
    </linearGradient>
    <linearGradient id="linear-gradient-13" x1="1857.0603" y1="1515.3065" x2="2107.4304" y2="1830.0984" gradientUnits="userSpaceOnUse">
      <stop offset="0.2765" stop-color="#0867df"/>
      <stop offset="1" stop-color="#0471e9"/>
    </linearGradient>
  </defs>
  <g id="Artboard_outline" data-name="Artboard outline">
    <rect class="cls-1" x="-0.0049" width="6962.3646" height="3000"/>
  </g>
  <g id="Wordmark">
    <g>
      <path class="cls-2" d="M2821.41,1032.1316h188.076L3329.2827,1610.62l319.793-578.4879h184.0048V1982.696H3679.6333V1254.16l-280.4166,504.4785H3255.2733L2974.8567,1254.16v728.536H2821.41Z"/>
      <path class="cls-2" d="M4328.0379,1999.6744q-106.6049,0-187.3953-47.1892-80.8056-47.1891-125.95-130.7024-45.16-83.5176-45.1515-191.4708,0-109.31,44.1326-193.5086,44.1325-84.1809,122.5557-131.7256,78.4252-47.5143,180.2675-47.5273,101.1615,0,174.1586,47.8655,72.9753,47.8785,112.3669,134.1016,39.372,86.2359,39.3807,202.3359v42.09H4121.6308q14.262,86.9254,70.2765,136.8157,56.0144,49.9076,141.5631,49.9033,68.5726,0,118.1421-20.3689,49.5564-20.3688,93.0213-61.7829l81.4754,99.8065Q4504.5594,1999.683,4328.0379,1999.6744ZM4440.071,1435.78q-48.2168-49.2181-126.2887-49.2269-76.0517,0-127.3076,50.25-51.2733,50.2458-64.8439,135.1161h373.4378Q4488.2726,1485.0071,4440.071,1435.78Z"/>
      <path class="cls-2" d="M4828.4582,1400.1412H4687.2288V1274.5289h141.2294V1066.7647h148.0146v207.7642h214.5538v125.6123H4976.4728v318.4359q0,79.4334,27.1585,113.3858,27.1455,33.9612,93.0213,33.9481,29.181,0,49.5651-2.3759,20.3688-2.3673,44.8089-6.4515v124.251a419.4353,419.4353,0,0,1-56.6929,12.2265,446.1821,446.1821,0,0,1-66.201,4.7519q-239.6854,0-239.6745-262.0812Z"/>
      <path class="cls-2" d="M5962.36,1982.696H5817.0592v-99.13q-38.7021,55.6827-98.4495,85.8891-59.7539,30.2022-135.7968,30.22-93.6954,0-166.0075-47.8742-72.3121-47.8656-113.7284-131.717-41.4205-83.8557-41.4184-191.809,0-108.6339,42.0991-192.1558,42.09-83.5046,116.4425-131.0406,74.3476-47.5143,170.7594-47.5273,72.65,0,130.3642,28.1817a257.7339,257.7339,0,0,1,95.7354,79.7759v-90.9792H5962.36Zm-148.0146-460.3416q-23.7766-60.43-75.0284-95.4015-51.2733-34.9628-118.48-34.9627-95.0676,0-151.4094,63.8207-56.3656,63.825-56.3547,172.4633,0,109.3235,54.3169,173.14,54.3105,63.8251,147.3383,63.8208,68.566,0,122.2132-35.31,53.6275-35.288,77.4043-95.0548Z"/>
    </g>
  </g>
  <g id="Symbol">
    <g>
      <path class="cls-3" d="M1432.4051,1000c-.4839,0-.9653.0017-1.4487.0042l-1.9788,163.4525c.4529-.0048.905-.0088,1.3584-.0088l.0012,0c107.586,0,191.0355,84.8273,372.4145,390.3439l11.0567,18.5992.7236,1.2174,101.5337-152.3428-.7031-1.1766v0q-35.8428-58.2937-68.8663-107.2692c-25.5327-37.83-49.95-71.6254-73.6468-101.7986C1652.8614,1058.2461,1552.49,1000,1432.4051,1000Z"/>
      <path class="cls-4" d="M1430.9564,1000.0042c-120.668.6208-227.3467,78.6492-304.3782,198.0491q-.3383.5242-.6765,1.0505l141.4,76.9618c.2295-.3477.46-.6962.6906-1.0426,44.9819-67.7263,100.96-110.9232,160.9856-111.5663.4529-.0048.905-.0088,1.3584-.0088L1432.4051,1000C1431.9212,1000,1431.44,1000.0017,1430.9564,1000.0042Z"/>
      <path class="cls-5" d="M1126.5782,1198.0533q-.3383.5242-.6765,1.0505c-50.6181,78.7956-88.3524,175.4876-108.7451,279.8q-.1325.6771-.2641,1.3557l158.8571,37.4823q.1245-.6792.25-1.3591c16.98-91.673,49.3076-176.6968,91.3014-240.317.2295-.3477.46-.6962.6906-1.0426Z"/>
      <path class="cls-6" d="M1176,1516.3826l-158.8434-37.4789q-.1325.6771-.2641,1.3557a924.7386,924.7386,0,0,0-16.8958,174.0944q-.0014.7086-.0011,1.4168l162.9142,14.5749c-.0129-.4742-.0264-.9428-.0376-1.4188q-.12-5.0835-.1218-10.3053a784.47,784.47,0,0,1,12.9992-140.88Q1175.8741,1517.0625,1176,1516.3826Z"/>
      <path class="cls-7" d="M1167.8649,1721.1737a340.3583,340.3583,0,0,1-4.9551-50.8282c-.0129-.4742-.0264-.9428-.0376-1.4188l-162.8755-14.5729q-.0014.7086-.0011,1.4168l0,.0922c0,36.3676,3.0328,70.4191,8.9271,101.8756.0852.4552.169.9019.2555,1.356l158.9333-36.56C1168.0275,1722.0827,1167.9464,1721.6278,1167.8649,1721.1737Z"/>
      <path class="cls-8" d="M1204.9812,1805.4934c-17.7277-19.35-30.2738-47.2616-36.87-82.959-.0835-.4517-.1646-.9066-.2461-1.3607l-158.9427,36.5647c.0852.4552.169.9019.2555,1.356,12.0135,63.0747,35.5741,115.6419,69.3147,155.41q.45.53.9032,1.0594l126.5324-109.0514C1205.6119,1806.1756,1205.2945,1805.8352,1204.9812,1805.4934Z"/>
      <path class="cls-9" d="M1675.8611,1353.3607c-95.7786,146.91-153.8009,239.054-153.8009,239.054-127.5862,199.9995-171.724,244.8249-242.7583,244.8249-29.6406,0-54.4032-10.5534-73.3739-30.7275-.3161-.3365-.6335-.6769-.9468-1.0187l-126.4888,109.0107q.45.53.9032,1.0594c46.588,54.3051,112.3479,84.4365,193.6995,84.4365,123.08,0,211.6-58.0258,368.9646-333.1028,0,0,65.6-115.8428,110.7278-195.64C1724.8334,1426.1237,1699.3943,1387.0506,1675.8611,1353.3607Z"/>
      <path class="cls-10" d="M1846.5778,1121.48c-.323.3427-.6521.693-.9748,1.0367-25.1518,26.7978-49.29,56.7241-72.7733,88.4754,23.6972,30.1731,48.16,64.0342,73.693,101.8644,30.0932-46.4471,58.1829-84.0654,85.7149-112.8978.3264-.3419.6462-.6741.9726-1.0135Z"/>
      <path class="cls-9" d="M2311.5727,1107.0792c-66.7938-67.4815-146.4389-107.077-231.5823-107.077-89.7793,0-165.2977,49.1989-233.4126,121.4781-.323.3427-.6521.693-.9748,1.0367l86.6346,77.442c.3264-.3419.6462-.6741.9726-1.0135,44.8722-46.6743,88.2967-69.9779,136.4365-69.9779l-.0017,0c51.8126,0,100.32,24.3907,142.3295,67.1506.3291.3352.6558.6674.9844,1.0049l99.6092-89.0389C2312.2365,1107.7472,2311.9045,1107.4145,2311.5727,1107.0792Z"/>
      <path class="cls-11" d="M2504.6753,1632.8435c-3.7422-216.67-79.563-410.371-192.1072-524.76-.3316-.3367-.6636-.6694-.9954-1.0047l-99.5982,89.0387c.3291.3352.6558.6674.9844,1.0049,84.6658,86.9687,142.7375,248.733,148.0192,435.6745q.0205.7054.04,1.4117l143.68.0462Q2504.6868,1633.55,2504.6753,1632.8435Z"/>
      <path class="cls-12" d="M2504.698,1634.2552q-.0112-.7056-.0227-1.4117l-143.6972-.0462q.0205.7054.04,1.4117.3531,13.1611.3508,26.4813c0,50.9695-7.6122,92.1713-23.0946,121.9174-.2295.4412-.4639.884-.6968,1.32l107.1357,111.424c.2649-.4039.5264-.8066.79-1.2127,38.8944-60.0138,59.3141-143.3839,59.3141-244.4832Q2504.8167,1641.9365,2504.698,1634.2552Z"/>
      <path class="cls-13" d="M2338.2741,1782.6077c-.2295.4412-.4639.884-.6968,1.32-13.4,25.0736-32.5236,41.797-57.5233,49.11l48.8419,153.9217q9.7009-3.294,18.8886-7.3972,2.7451-1.2219,5.4439-2.5155,1.5564-.745,3.0986-1.5122c32.2936-16.0966,59.5851-39.8356,81.6588-70.4228,1.3476-1.8674,2.6826-3.7511,3.9914-5.6693q1.3824-2.0265,2.7358-4.0905c.2649-.4039.5264-.8066.79-1.2127Z"/>
      <path class="cls-14" d="M2248.9583,1837.24c-16.3781,0-30.8283-2.4383-44.9674-8.7567l-50.0081,157.5851c28.1069,9.6028,58.0908,13.93,91.5273,13.93,30.8085,0,59.087-4.613,84.7229-13.4973l-48.8276-153.8692A109.6208,109.6208,0,0,1,2248.9583,1837.24Z"/>
      <path class="cls-15" d="M2148.89,1783.3436q-.4614-.5328-.9258-1.0734l-115.0684,119.6737q.4824.5168.9651,1.03c39.9836,42.6091,78.1608,69.0409,121.461,83.5469l49.9689-157.4685C2187.0434,1821.215,2169.3977,1807.0085,2148.89,1783.3436Z"/>
      <path class="cls-16" d="M2147.9639,1782.27c-34.5163-40.1387-77.2127-106.9673-144.3764-215.0335l-87.5218-145.9712-.7031-1.1766v0L1813.8084,1572.39l0,0,0,0,.7236,1.2174,62.016,104.3256c60.1136,100.5949,109.0867,173.3692,156.3475,224.01q.4824.5168.9651,1.03l115.0291-119.63Q2148.4283,1782.8108,2147.9639,1782.27Z"/>
    </g>
  </g>
</svg>
