<svg height="512" viewBox="0 0 1520 512" width="1520" xmlns="http://www.w3.org/2000/svg"><circle cx="256" cy="256" fill="#f0b01f" r="256"/><path d="m249.13867 32.105469a223.99998 223.99998 0 0 0 -89.46875 21.666015l.0137.0039c9.17137 2.531133 17.90736 6.430927 25.91407 11.570312 1.75034 1.085861 3.49242 2.228421 5.22656 3.427735.60022.415963 1.18767.850267 1.78125 1.27539 7.84886-2.67621 15.85811-4.855541 23.98242-6.519531.69078-.847595 1.38834-1.689217 2.0957-2.523438 1.62068-1.944826 3.31909-3.872744 5.09375-5.785156 7.72857-8.467903 16.22402-16.197045 25.36133-23.115234zm13.72461 0c9.13684 6.91795 17.63116 14.647715 25.35938 23.115234 1.77466 1.912412 3.47307 3.84033 5.09375 5.785156.70946.836704 1.40878 1.681093 2.10156 2.53125 8.12246 1.663357 16.13255 3.8363 23.98047 6.511719.59273-.424493 1.17799-.86003 1.77734-1.27539 1.73414-1.199313 3.47622-2.341874 5.22656-3.427735 8.00671-5.139385 16.7427-9.039179 25.91407-11.570312l.0137-.0039a223.99998 223.99998 0 0 0 -89.46683-21.666022zm-6.86328 2.52539c-10.08452 7.230597-19.37396 15.510138-27.71289 24.699219-7.07133 7.646789-13.40417 15.944749-18.91406 24.783203-.76578 1.215516-1.50658 2.43051-2.24805 3.767578-.74146 1.337068-1.4478 2.552913-2.14062 3.853516-8.75175 16.348695-14.71835 35.652685-13.47852 57.130855-16.65257-19.898-33.26855-29.01606-49.39844-31.17968-1.42215-.19448-2.83219-.32749-4.24219-.40039-1.21552-.0851-2.43096-.1211-3.64648-.1211h-.62109c-7.33367.15241-14.59949 1.43981-21.53907 3.81641-15.947558 5.29965-31.117716 15.47402-44.974606 26.20703 7.53989.0904 15.022823 1.31978 22.195313 3.64648 10.748573 3.52699 20.995723 8.42965 30.486323 14.58594.004.003.009.005.0137.008 3.74631-2.10614 7.62287-3.97238 11.60547-5.58789 1.39785-.58345 2.7838-1.10515 4.18164-1.60351s2.80723-.94805 4.20507-1.36133c6.85051-2.08189 13.96724-3.16278 21.12696-3.20898 13.69696.0258 27.06054 4.22289 38.3125 12.0332 1.27224.85897 2.53694 1.77006 3.79297 2.73437 1.21551.89948 2.43011 1.86071 3.56054 2.85743.72175.60343 1.44376 1.1865 2.1543 1.86718.001-.54921.0281-1.09727.0684-1.64062.041-.55306.0942-1.10146.13672-1.64844.0608-.88125.13284-1.75417.21484-2.61719.082-.86301.17429-1.71771.27149-2.5625l.0684-.0371c.19333-1.67588.43269-3.60426.70898-5.25 2.17347-14.58212 7.12482-28.61028 14.58594-41.32617.86302-1.45862 1.72639-2.84544 2.60156-4.1582.53482-.83871 1.08193-1.64156 1.62891-2.43164.3525-.49837.69242-.98298 1.04492-1.45703 11.04837-15.267065 22.31652-22.280546 22.80273-22.572269l3.14834-1.945512 3.14844 1.945312c.48621.291723 11.75446 7.305004 22.80273 22.572269.3525.47405.69242.95866 1.04492 1.45703.54698.79008 1.09409 1.59293 1.62891 2.43164.87517 1.31276 1.73854 2.69958 2.60156 4.1582 7.46112 12.71589 12.41247 26.74405 14.58594 41.32617.27629 1.64574.51565 3.57412.70898 5.25l.0684.0371c.0972.84479.18949 1.69949.27149 2.5625.082.86302.15404 1.73594.21484 2.61719.0425.54698.0957 1.09538.13672 1.64844.0403.54335.0674 1.09141.0684 1.64062.71054-.68068 1.43255-1.26375 2.1543-1.86718 1.13043-.99672 2.34503-1.95795 3.56054-2.85743 1.25603-.96431 2.52073-1.8754 3.79297-2.73437 11.25196-7.81031 24.61554-12.0074 38.3125-12.0332 7.15972.0462 14.27645 1.12709 21.12696 3.20898 1.39784.41328 2.80723.86297 4.20507 1.36133s2.78379 1.02006 4.18164 1.60351c3.9826 1.61551 7.85916 3.48175 11.60547 5.58789.005-.003.01-.005.0137-.008 9.49061-6.15629 19.73775-11.05895 30.48632-14.58594 7.17249-2.3267 14.65543-3.55608 22.19532-3.64648-13.85689-10.73301-29.02704-20.90738-44.97461-26.20703-6.93958-2.3766-14.2054-3.664-21.53907-3.81641h-.62109c-1.21552 0-2.43096.036-3.64648.1211-1.41.0729-2.82004.20591-4.24219.40039-16.12989 2.16362-32.74587 11.28168-49.39844 31.17968 1.23983-21.47817-4.7268-40.78216-13.47852-57.130855-.69283-1.300603-1.39916-2.516448-2.14062-3.853516-.74147-1.337068-1.48227-2.552062-2.24805-3.767578-5.51009-8.838054-11.84283-17.136214-18.91416-24.783003-8.33883-9.189281-17.62837-17.468622-27.71289-24.699219zm106.26562 24.179688c4.44183 9.566231 7.94439 19.542118 10.44727 29.789062.81439 3.208963 1.5806 6.440764 2.27344 9.722657.11619.526954.21354 1.066268.32617 1.595703 5.03631 3.849861 9.88304 7.941641 14.52344 12.259761.60118.10545 1.20413.19743 1.80273.31836 3.46951.69271 6.89222 1.60205 10.24805 2.72266 18.09904 6.00465 34.51928 17.67328 46.82031 27.1543l.26758.20703.3457.26758a223.99998 223.99998 0 0 0 -87.05469-84.037113zm-212.53124.002a223.99998 223.99998 0 0 0 -87.050786 84.033203l.341797-.26562.267578-.20703c12.30103-9.48102 28.721274-21.14965 46.820311-27.1543 3.35583-1.12061 6.77854-2.02995 10.24805-2.72266.5986-.12093 1.20155-.21291 1.80273-.31836 4.64009-4.31794 9.48575-8.40824 14.52149-12.257811.11278-.530188.21176-1.069956.32812-1.597656.69284-3.281893 1.45905-6.513694 2.27344-9.722657 2.50274-10.246368 6.0058-20.221369 10.44727-29.787109zm7.79687 3.179688c-4.31149 9.213711-7.70277 18.82899-10.125 28.708984-1.75034 6.78258-3.22178 13.846261-4.38867 20.957031 14.963 2.04207 29.28274 9.46714 42.67773 22.13282 1.56006-15.77744 6.29849-31.07567 13.92969-44.972664.26155-.487437.52396-.986639.79688-1.474609-5.96478-5.518429-12.43426-10.466169-19.32227-14.777391-7.28483-4.680864-15.22858-8.244556-23.56836-10.574218zm196.9375 0c-8.33978 2.329664-16.28353 5.893354-23.56836 10.574218-6.88801 4.311222-13.3575 9.258962-19.32227 14.777344.27292.48797.53533.987172.79688 1.474609 7.6312 13.896994 12.36963 29.195224 13.92969 44.972664 13.39499-12.66568 27.71473-20.09075 42.67773-22.13282-1.16689-7.11077-2.63833-14.174451-4.38867-20.957031-2.42223-9.879994-5.81351-19.495272-10.125-28.708984zm-98.46875 30.642531s-11.72986 7.171505-22.66992 23.337894c-.9238 1.33707-1.82318 2.74602-2.72266 4.21679-.89948 1.47078-1.80993 3.06457-2.69726 4.69336-5.14185 9.59295-8.80588 19.90664-10.86719 30.59375-.34034 1.77465-.65598 3.6463-.93555 5.44532-.27957 1.79893-.48759 3.48813-.66992 5.2871-.76528 7.35673-.92244 14.76375-.47266 22.14649-.0346-.0421-.0707-.083-.10546-.125.003.054.005.10811.008.16211-.52302-.6354-1.05501-1.26327-1.59375-1.88477-1.07749-1.243-2.18555-2.4588-3.32422-3.64453-1.13868-1.18572-2.30632-2.34255-3.50391-3.46875-.59879-.5631-1.20526-1.11822-1.81836-1.66601-.61309-.5478-1.2342-1.08695-1.86133-1.61914-.62709-.53221-1.2615-1.05788-1.90234-1.57422-1.21552-.98457-2.43096-1.90847-3.64648-2.77149-.60776-.4315-1.26637-.88619-1.93946-1.33594-.67309-.44974-1.35903-.89358-2.02148-1.30078l.0801-.0469c-9.68742-6.0955-20.89405-9.33953-32.33985-9.36133-7.05437.0479-14.06013 1.17431-20.77343 3.3418-1.38569.43758-2.77252.92502-4.15821 1.43554-1.38569.51051-2.74605 1.06847-4.10742 1.66407-2.13931.9238-4.2433 1.93338-6.33398 3.02734-1.02103.52673-2.02866 1.07339-3.02539 1.64062-.98457.54698-1.95771 1.11968-2.91797 1.70313-13.27161 8.29581-25.145257 18.64158-35.177737 30.6543 44.692017 3.44624 69.055317 14.05183 82.658207 27.19726-1.26314.94182-2.50387 1.90738-3.73243 2.88672-15.1838 12.12427-27.63825 27.16715-36.35351 44.21485l6.09766 5.16015 40.98828-34.67969 40.98632 34.67969 40.73243-34.52148.12109-.10938.12109.10938 40.73243 34.52148 40.98632-34.67969 40.98828 34.67969 6.08985-5.15234c-8.89993-17.41221-21.69341-32.74013-37.31836-44.9961-.0423-.0331-.0827-.0685-.125-.10156-.87045-.67936-1.7477-1.3503-2.63477-2.01172 13.60289-13.14543 37.96619-23.75102 82.65821-27.19726-10.03248-12.01272-21.90613-22.35849-35.17774-30.6543-.96026-.58345-1.9334-1.15615-2.91797-1.70313-.99673-.56723-2.00436-1.11389-3.02539-1.64062-2.09068-1.09396-4.19467-2.10354-6.33398-3.02734-1.36137-.5956-2.72173-1.15356-4.10742-1.66407-1.38569-.51052-2.77252-.99796-4.15821-1.43554-6.7133-2.16749-13.71906-3.2939-20.77343-3.3418-11.4458.0218-22.65243 3.26583-32.33985 9.36133l.0801.0469c-.66245.4072-1.34839.85104-2.02148 1.30078-.67309.44975-1.3317.90444-1.93946 1.33594-1.21552.86302-2.43096 1.78692-3.64648 2.77149-.64084.51634-1.27526 1.04201-1.90234 1.57422-.62712.53219-1.24824 1.07134-1.86133 1.61914-.6131.54779-1.21957 1.10291-1.81836 1.66601-1.19759 1.1262-2.36523 2.28303-3.50391 3.46875-1.13867 1.18573-2.24673 2.40153-3.32422 3.64453-.53874.6215-1.07073 1.24937-1.59375 1.88477.003-.054.005-.10811.008-.16211-.0348.042-.0709.0829-.10546.125.44978-7.38274.29262-14.78976-.47266-22.14649-.18233-1.79897-.39035-3.48817-.66992-5.2871-.27957-1.79901-.59521-3.67067-.93555-5.44532-2.06131-10.68711-5.72534-21.0008-10.86719-30.59375-.88733-1.62879-1.79778-3.22258-2.69726-4.69336-.89948-1.47077-1.79886-2.87972-2.72266-4.21679-10.94048-16.166389-22.67034-23.337894-22.67034-23.337894zm-199.050781 60.628904a223.99998 223.99998 0 0 0 -24.949219 102.73633 223.99998 223.99998 0 0 0 224 224 223.99998 223.99998 0 0 0 224-224 223.99998 223.99998 0 0 0 -24.94922-102.73633h-10.0625c-6.43426.0863-12.82339 1.08918-18.97461 2.97852l-.64258.19336c17.73078 30.16144 27.09938 64.53212 27.09961 99.56445-.00022 50.14086-19.17099 98.38432-53.58593 134.84961v-55.5c0-6.36846-.4766-12.63229-1.39258-18.76367l-18.66407 15.79687-40.98828-34.6914-40.98632 34.6914-40.85352-34.58203-40.85352 34.58203-40.98632-34.6914-40.98828 34.6914-18.67383-15.80664c-.91695 6.13451-1.39453 12.40159-1.39453 18.77344v55.48828c-34.4079-36.46417-53.574174-84.70269-53.574223-134.83789.000417-35.02582 9.368702-69.39679 27.103515-99.56445l-.646484-.19336c-6.15122-1.88934-12.540349-2.89222-18.974609-2.97852zm117.210941 102.60156-37.11133 31.34961c-2.26612 1.91778-5.58544 1.91778-7.85156 0l-4.82813-4.08398c-3.80447 8.42419-6.71683 17.28673-8.625 26.48828l17.42774 14.75391 37.06054-31.37305c1.13306-.95889 2.53089-1.4375 3.92774-1.4375s2.79272.47861 3.92578 1.4375l37.06054 31.37305 36.92774-31.26367c1.13306-.95889 2.52925-1.4375 3.92578-1.4375s2.79272.47861 3.92578 1.4375l36.92774 31.26367 37.06054-31.37305c1.13306-.95889 2.52893-1.4375 3.92578-1.4375s2.79468.47861 3.92774 1.4375l37.06054 31.37305 17.41797-14.74414c-1.90758-9.20241-4.82086-18.06523-8.625-26.49024l-4.81836 4.07617c-2.26612 1.91778-5.58544 1.91778-7.85156 0l-37.11133-31.34961-37.01172 31.34961c-2.26611 1.91778-5.58544 1.91778-7.85156 0l-36.97656-31.24023-36.97656 31.24023c-2.26612 1.91778-5.58547 1.91778-7.85156 0zm71.65625 89.09571c.27121-.00095.48133.038.625.12109 4.59718 2.65793 4.59718 85.887 0 88.54492-4.56297 2.65793-76.68164-38.95758-76.68164-44.27343 0-5.14974 67.64907-44.36318 76.05664-44.39258zm80.13671 0c.27121-.00095.48134.038.625.12109 4.5972 2.65793 4.60861 85.887 0 88.54492-4.56296 2.65793-76.66992-38.95758-76.66992-44.27343 0-5.14974 67.63802-44.36318 76.04492-44.39258z" fill="#fff"/><g fill="#f0b01f" stroke-width="8.81198"><path d="m738.17924 274.2296h-29.25843q0-20.82511-9.46596-29.77475-9.29385-8.94964-27.36524-8.94964-10.15439 0-19.44824 1.8932-9.12175 1.89319-13.25235 3.78638l-4.1306 1.89319v144.39895h-29.25843v-161.09346q1.03265-.68843 2.92584-1.89319 2.0653-1.20476 8.60542-4.30271 6.54012-3.09795 13.59657-5.50747 7.22855-2.40952 18.41559-4.30271 11.18705-1.89319 22.5462-1.89319 32.35638 0 49.22301 15.14553 16.86662 15.14554 16.86662 50.59987z"/><path d="m810.80898 150.99999h51.80463v32.01216h-51.80463zm-28.56999 77.27667h75.21137v132.17925h51.46041v27.02102h-132.17925v-27.02102h51.46041v-105.15823h-45.95294z"/><path d="m958.47799 211.23793h121.16431v27.02102l-92.76643 122.19696h98.27393v27.02102h-132.17928v-27.02102l92.76638-122.19696h-87.25891z"/><path d="m1163.287 150.99999h51.8046v32.01216h-51.8046zm-28.57 77.27667h75.2113v132.17925h51.4605v27.02102h-132.1793v-27.02102h51.4604v-105.15823h-45.9529z"/><path d="m1437.6278 387.47693h-29.2585v-113.24733q0-20.82511-9.4659-29.77475-9.2939-8.94964-27.3653-8.94964-10.1544 0-19.4482 1.8932-9.1218 1.89319-13.2524 3.78638l-4.1306 1.89319v144.39895h-29.2584v-161.09346q1.0327-.68843 2.9259-1.89319 2.0653-1.20476 8.6054-4.30271 6.5401-3.09795 13.5965-5.50747 7.2286-2.40952 18.4156-4.30271 11.1871-1.89319 22.5462-1.89319 32.3564 0 49.223 15.14553 16.8667 15.14554 16.8667 50.59987z"/></g></svg>